Coordinates
version=1
nRows=14
nColumns=24
inDegrees=yes

Units are S.I. units (second, meters, Newtons, ...)
Angles are in degrees.

endheader
time	pelvis_tilt	pelvis_list	pelvis_rotation	pelvis_tx	pelvis_ty	pelvis_tz	hip_flexion_r	hip_adduction_r	hip_rotation_r	knee_angle_r	ankle_angle_r	subtalar_angle_r	mtp_angle_r	hip_flexion_l	hip_adduction_l	hip_rotation_l	knee_angle_l	ankle_angle_l	subtalar_angle_l	mtp_angle_l	lumbar_extension	lumbar_bending	lumbar_rotation
      0.70016667	      8.93569136	     -3.00968357	     -1.81737706	     -0.53069084	      1.03050401	      0.30921991	      1.36289792	      5.20062506	     -4.32933834	    -14.57011893	     -0.92372047	    -11.75857770	     -2.84035493	      9.32701348	     -7.05733912	     -7.75985231	    -71.84212075	     -0.13260423	    -17.80484776	     -4.83778523	    -22.91239295	      4.83846747	      5.96126314
      0.70433333	      8.95707619	     -2.83175184	     -1.90270239	     -0.52526732	      1.03150889	      0.30962057	      0.86137873	      5.02995213	     -4.22015491	    -14.29092532	     -0.86758921	    -11.77120451	     -2.83077085	      9.92425453	     -6.82746220	     -7.77847557	    -71.68490365	      0.16896793	    -17.78512264	     -4.88089077	    -22.94134096	      4.60341301	      6.02897257
      0.70850000	      8.98544255	     -2.64809886	     -2.00165955	     -0.51982145	      1.03251764	      0.31004088	      0.34671561	      4.85003452	     -4.10669850	    -14.00087977	     -0.79994632	    -11.74964806	     -2.82069502	     10.48665970	     -6.59378600	     -7.82238220	    -71.43807174	      0.44236485	    -17.73006132	     -4.92839103	    -22.97317858	      4.34941195	      6.11680011
      0.71266667	      9.01764026	     -2.46976500	     -2.10266730	     -0.51435309	      1.03351361	      0.31046070	     -0.17751726	      4.67428331	     -3.99134265	    -13.69995437	     -0.73787761	    -11.72585949	     -2.81216765	     11.02007752	     -6.36692121	     -7.88334540	    -71.10811179	      0.69793902	    -17.69648721	     -4.97438659	    -23.00788779	      4.09955593	      6.20633683
      0.71683333	      9.14419734	     -2.26777816	     -2.26463556	     -0.50886512	      1.03466484	      0.31101834	     -0.81481210	      4.47004891	     -3.80864213	    -13.37818732	     -0.63491723	    -11.65572328	     -2.79271810	     11.39573874	     -6.13358115	     -8.04092032	    -70.65730552	      0.87114954	    -17.67209433	     -5.09975553	    -23.13964544	      3.79395867	      6.38227019
      0.72100000	      9.18967585	     -2.09428608	     -2.37314390	     -0.50338083	      1.03563817	      0.31145186	     -1.36482979	      4.29658559	     -3.67894962	    -13.04833303	     -0.60143685	    -11.66184673	     -2.77994852	     11.86936985	     -5.91830884	     -8.13892198	    -70.17204775	      1.06980192	    -17.67310902	     -5.21966239	    -23.18373414	      3.54276530	      6.48383237
      0.72516667	      9.18288355	     -1.93528044	     -2.45251470	     -0.49790390	      1.03646676	      0.31178708	     -1.85231469	      4.13543819	     -3.58973112	    -12.72771552	     -0.58921549	    -11.66672012	     -2.77715420	     12.39804308	     -5.70581707	     -8.20425671	    -69.64891281	      1.30768316	    -17.68885615	     -5.26776335	    -23.16873795	      3.32431720	      6.53446770
      0.72933333	      9.28577666	     -1.74337259	     -2.60224385	     -0.49236842	      1.03749708	      0.31229208	     -2.47088892	      3.93243069	     -3.43710609	    -12.38913665	     -0.50946402	    -11.61349565	     -2.77190131	     12.73545200	     -5.48027733	     -8.38023436	    -68.97948995	      1.42880737	    -17.72456697	     -5.38978912	    -23.26711609	      3.03796481	      6.64890252
      0.73350000	      9.31823296	     -1.57910374	     -2.70722298	     -0.48683517	      1.03835338	      0.31269033	     -3.01352375	      3.76088220	     -3.32826124	    -12.04620048	     -0.48445623	    -11.61001700	     -2.77253087	     13.15322156	     -5.27539833	     -8.50565229	    -68.28217336	      1.58735090	    -17.75149070	     -5.50285558	    -23.28596815	      2.79776312	      6.73432905
      0.73766667	      9.38407087	     -1.41896551	     -2.80706793	     -0.48131943	      1.03920892	      0.31310444	     -3.59663931	      3.59237052	     -3.22620090	    -11.69071309	     -0.45782965	    -11.59107415	     -2.77768404	     13.51218974	     -5.07667309	     -8.63810811	    -67.51540944	      1.72757589	    -17.78235834	     -5.61073852	    -23.34872403	      2.54038342	      6.80860904
      0.74183333	      9.43339210	     -1.26230617	     -2.91908471	     -0.47576128	      1.04001497	      0.31349241	     -4.15967830	      3.42082586	     -3.12521327	    -11.34494646	     -0.42162626	    -11.56151419	     -2.78670741	     13.85601345	     -4.88157145	     -8.79045091	    -66.67464402	      1.86256987	    -17.82586738	     -5.72338259	    -23.38458761	      2.31250780	      6.88829668
      0.74600000	      9.50307488	     -1.11694276	     -3.03336452	     -0.47020569	      1.04080236	      0.31388933	     -4.74944479	      3.25917311	     -3.02554963	    -10.98537191	     -0.40045461	    -11.53112398	     -2.80431927	     14.15197498	     -4.70099570	     -8.95745497	    -65.77221506	      2.02215502	    -17.89079821	     -5.87310013	    -23.44400763	      2.08639596	      6.97857863
      0.75016667	      9.53528238	     -0.97211560	     -3.13251231	     -0.46463458	      1.04148220	      0.31426403	     -5.29437282	      3.09969342	     -2.94503564	    -10.63924761	     -0.35787287	    -11.51008919	     -2.82273487	     14.47053561	     -4.52089887	     -9.11042341	    -64.80780060	      2.12179272	    -17.92023181	     -5.99426346	    -23.45776980	      1.86596375	      7.03710247
      0.75433333	      9.48920028	     -0.86209175	     -3.18708579	     -0.45905129	      1.04196045	      0.31450010	     -5.75192592	      2.97963447	     -2.92057625	    -10.29749988	     -0.36898930	    -11.50953049	     -2.83321132	     14.87353009	     -4.36487786	     -9.21057894	    -63.82670600	      2.30314294	    -17.92029729	     -6.04357467	    -23.37647918	      1.71818697	      7.07956470
